<?xml version="1.0" encoding="UTF-8" standalone="no"?>
<svg
   xmlns:dc="http://purl.org/dc/elements/1.1/"
   xmlns:cc="http://creativecommons.org/ns#"
   xmlns:rdf="http://www.w3.org/1999/02/22-rdf-syntax-ns#"
   xmlns:svg="http://www.w3.org/2000/svg"
   xmlns="http://www.w3.org/2000/svg"
   xmlns:sodipodi="http://sodipodi.sourceforge.net/DTD/sodipodi-0.dtd"
   xmlns:inkscape="http://www.inkscape.org/namespaces/inkscape"
   width="256mm"
   height="256mm"
   viewBox="0 0 256 256"
   version="1.1"
   id="svg8"
   inkscape:version="1.0.1 (3bc2e81, 2020-09-07)"
   sodipodi:docname="b.svg">
  <defs
     id="defs2">
    <inkscape:path-effect
       effect="fillet_chamfer"
       id="path-effect1031"
       is_visible="true"
       lpeversion="1"
       satellites_param="F,0,0,1,0,0.26458333,0,1 @ F,0,0,1,0,0.26458333,0,1 @ F,0,0,1,0,0.26458333,0,1 @ F,0,0,1,0,0.26458333,0,1 @ F,0,0,1,0,0.26458333,0,1 @ F,0,0,1,0,0.38543092,0,1 @ F,0,0,1,0,0.39714681,0,1 | F,0,0,1,0,0.26458333,0,1 @ F,0,0,1,0,0.26458333,0,1 @ F,0,0,1,0,0.26458333,0,1 @ F,0,0,1,0,0.26458333,0,1 @ F,0,0,1,0,0.26458333,0,1 @ F,0,0,1,0,0.39714581,0,1 @ F,0,0,1,0,0.39714581,0,1 | F,0,0,1,0,0.26458333,0,1 @ F,0,0,1,0,0.26458333,0,1 @ F,0,0,1,0,0.26458333,0,1 @ F,0,0,1,0,0.26458333,0,1 @ F,0,0,1,0,0.65077294,0,1 @ F,0,0,1,0,0.99618347,0,1 @ F,0,0,1,0,0.97503943,0,1 @ F,0,0,1,0,0.26458333,0,1 @ F,0,0,1,0,0.26458333,0,1 @ F,0,0,1,0,0.26458333,0,1 @ F,0,0,1,0,0.26458333,0,1"
       unit="px"
       method="auto"
       mode="F"
       radius="1"
       chamfer_steps="1"
       flexible="false"
       use_knot_distance="true"
       apply_no_radius="true"
       apply_with_radius="true"
       only_selected="false"
       hide_knots="false" />
    <rect
       x="43.530179"
       y="102.33832"
       width="57.557666"
       height="52.573834"
       id="rect1024" />
    <inkscape:path-effect
       effect="fillet_chamfer"
       id="path-effect1000"
       is_visible="true"
       lpeversion="1"
       satellites_param="F,1,0,1,0,0.1,0,1 @ F,1,0,1,0,0.1,0,1 @ F,1,0,1,0,0.21626301,0,1 @ F,1,0,1,0,0.1,0,1 @ F,1,0,1,0,0.3413672,0,1 @ F,1,0,1,0,0.1,0,1 @ F,1,0,1,0,0.2785319,0,1 @ F,1,0,1,0,0.20976166,0,1 | F,1,0,1,0,0.1,0,1 @ F,1,0,1,0,0.1,0,1 @ F,1,0,1,0,0.1,0,1"
       unit="px"
       method="auto"
       mode="F"
       radius="10"
       chamfer_steps="1"
       flexible="true"
       use_knot_distance="true"
       apply_no_radius="true"
       apply_with_radius="true"
       only_selected="false"
       hide_knots="false" />
    <inkscape:path-effect
       effect="fillet_chamfer"
       id="path-effect998"
       is_visible="true"
       lpeversion="1"
       satellites_param="F,1,0,1,0,0.13,0,1 @ F,1,0,1,0,0.13,0,1 @ F,1,0,1,0,0.13,0,1 @ F,1,0,1,0,0.13,0,1 @ F,1,0,1,0,0,0,1 @ F,1,0,1,0,0.13,0,1 @ F,1,0,1,0,0.13,0,1 @ F,1,0,1,0,0.13,0,1 | F,1,0,1,0,0.13,0,1 @ F,1,0,1,0,0.13,0,1 @ F,1,0,1,0,0.13,0,1"
       unit="px"
       method="auto"
       mode="F"
       radius="13"
       chamfer_steps="1"
       flexible="true"
       use_knot_distance="true"
       apply_no_radius="true"
       apply_with_radius="true"
       only_selected="false"
       hide_knots="false" />
    <rect
       x="33.436326"
       y="113.57952"
       width="22.581928"
       height="18.288182"
       id="rect991" />
    <inkscape:path-effect
       effect="fillet_chamfer"
       id="path-effect968"
       is_visible="true"
       lpeversion="1"
       satellites_param="F,1,0,1,0,0.1,0,1 @ F,1,0,1,0,0.1,0,1 @ F,1,0,1,0,0.1,0,1 @ F,1,0,1,0,0.1,0,1 @ F,1,0,1,0,0.1,0,1 @ F,1,0,1,0,0.1,0,1 @ F,1,0,1,0,0.1,0,1 @ F,1,0,1,0,0.1,0,1 @ F,1,0,1,0,0.1,0,1"
       unit="px"
       method="auto"
       mode="F"
       radius="10"
       chamfer_steps="1"
       flexible="true"
       use_knot_distance="true"
       apply_no_radius="true"
       apply_with_radius="true"
       only_selected="false"
       hide_knots="false" />
    <rect
       x="100.21596"
       y="68.049561"
       width="32.121856"
       height="24.257252"
       id="rect961" />
    <inkscape:path-effect
       effect="fillet_chamfer"
       id="path-effect934"
       is_visible="true"
       lpeversion="1"
       satellites_param="F,1,0,1,0,0.1,0,1 @ F,1,0,1,0,0.1,0,1 @ F,1,0,1,0,0.1,0,1 @ F,1,0,1,0,0.1,0,1 @ F,1,0,1,0,0.1,0,1 @ F,1,0,1,0,0.1,0,1 @ F,1,0,1,0,0.1,0,1 @ F,1,0,1,0,0.1,0,1 @ F,1,0,1,0,0.1,0,1 @ F,1,0,1,0,0.1,0,1 @ F,1,0,1,0,0.1,0,1 @ F,1,0,1,0,0.1,0,1"
       unit="px"
       method="auto"
       mode="F"
       radius="10"
       chamfer_steps="1"
       flexible="true"
       use_knot_distance="true"
       apply_no_radius="true"
       apply_with_radius="true"
       only_selected="false"
       hide_knots="false" />
    <rect
       x="97.631077"
       y="41.19409"
       width="99.143031"
       height="56.38857"
       id="rect921" />
    <inkscape:path-effect
       effect="fillet_chamfer"
       id="path-effect917"
       is_visible="true"
       lpeversion="1"
       satellites_param="F,1,0,1,0,0.1,0,1 @ F,1,0,1,0,0.1,0,1 @ F,1,0,1,0,0.1,0,1 @ F,1,0,1,0,0.1,0,1 @ F,1,0,1,0,0.1,0,1 @ F,1,0,1,0,0.1,0,1 @ F,1,0,1,0,0.1,0,1 @ F,1,0,1,0,0.1,0,1 @ F,1,0,1,0,0.1,0,1 @ F,1,0,1,0,0.1,0,1 @ F,1,0,1,0,0.1,0,1 @ F,1,0,1,0,0.1,0,1"
       unit="px"
       method="auto"
       mode="F"
       radius="10"
       chamfer_steps="1"
       flexible="true"
       use_knot_distance="true"
       apply_no_radius="true"
       apply_with_radius="true"
       only_selected="false"
       hide_knots="false" />
    <inkscape:path-effect
       effect="fillet_chamfer"
       id="path-effect915"
       is_visible="true"
       lpeversion="1"
       satellites_param="F,1,0,1,0,0.1,0,1 @ F,1,0,1,0,0.1,0,1 @ F,1,0,1,0,0.1,0,1 @ F,1,0,1,0,0.1,0,1 @ F,1,0,1,0,0.1,0,1 @ F,1,0,1,0,0.1,0,1 @ F,1,0,1,0,0.1,0,1 @ F,1,0,1,0,0.1,0,1 @ F,1,0,1,0,0.1,0,1 @ F,1,0,1,0,0.1,0,1 @ F,1,0,1,0,0.1,0,1 @ F,1,0,1,0,0.1,0,1"
       unit="px"
       method="auto"
       mode="F"
       radius="10"
       chamfer_steps="1"
       flexible="true"
       use_knot_distance="true"
       apply_no_radius="true"
       apply_with_radius="true"
       only_selected="false"
       hide_knots="false" />
    <rect
       x="96.900131"
       y="74.253103"
       width="95.379977"
       height="82.708988"
       id="rect946" />
    <inkscape:path-effect
       effect="fillet_chamfer"
       id="path-effect922"
       is_visible="true"
       lpeversion="1"
       satellites_param="F,1,0,1,0,0.2,0,1 @ F,1,0,1,0,0.2,0,1 @ F,1,0,1,0,0.2,0,1 @ F,1,0,1,0,0.2,0,1 @ F,1,0,1,0,0.2,0,1 @ F,1,0,1,0,0.2,0,1"
       unit="px"
       method="auto"
       mode="F"
       radius="20"
       chamfer_steps="1"
       flexible="true"
       use_knot_distance="true"
       apply_no_radius="true"
       apply_with_radius="true"
       only_selected="false"
       hide_knots="false" />
    <inkscape:path-effect
       effect="fillet_chamfer"
       id="path-effect862"
       is_visible="true"
       lpeversion="1"
       satellites_param="F,0,0,1,0,7.14375,0,1 @ F,0,0,1,0,7.14375,0,1 @ F,0,0,1,0,7.14375,0,1 @ F,0,0,1,0,7.14375,0,1 @ F,0,0,1,0,7.14375,0,1 | F,0,0,1,0,7.14375,0,1 @ F,0,0,1,0,7.14375,0,1 @ F,0,0,1,0,7.14375,0,1 @ F,0,0,1,0,7.14375,0,1 @ F,0,0,1,0,7.14375,0,1 @ F,0,0,1,0,7.14375,0,1"
       unit="px"
       method="auto"
       mode="F"
       radius="27"
       chamfer_steps="1"
       flexible="false"
       use_knot_distance="true"
       apply_no_radius="true"
       apply_with_radius="true"
       only_selected="false"
       hide_knots="false" />
    <font
       horiz-adv-x="1024"
       id="font925"
       inkscape:label="font 1">
      <font-face
         units-per-em="1024"
         id="font-face927"
         font-family="SVGFont 1" />
      <missing-glyph
         d="M0,0h1000v1024h-1000z"
         id="missing-glyph929" />
    </font>
  </defs>
  <sodipodi:namedview
     id="base"
     pagecolor="#ffffff"
     bordercolor="#666666"
     borderopacity="1.0"
     inkscape:pageopacity="0"
     inkscape:pageshadow="2"
     inkscape:zoom="0.47362968"
     inkscape:cx="682.59448"
     inkscape:cy="499.14689"
     inkscape:document-units="mm"
     inkscape:current-layer="layer1"
     inkscape:document-rotation="0"
     showgrid="false"
     showguides="true"
     inkscape:guide-bbox="true"
     inkscape:snap-global="true"
     inkscape:snap-page="true"
     inkscape:snap-grids="false"
     inkscape:snap-bbox="true"
     inkscape:bbox-nodes="true"
     inkscape:pagecheckerboard="true"
     inkscape:window-width="1848"
     inkscape:window-height="1009"
     inkscape:window-x="72"
     inkscape:window-y="34"
     inkscape:window-maximized="1"
     inkscape:snap-center="true"
     inkscape:snap-object-midpoints="true"
     inkscape:bbox-paths="true"
     inkscape:snap-intersection-paths="true"
     inkscape:object-paths="true">
    <sodipodi:guide
       position="255.99999,255.99999"
       orientation="0.70710678,-0.70710678"
       id="guide833" />
    <sodipodi:guide
       position="0,255.99999"
       orientation="-0.70710678,-0.70710678"
       id="guide837" />
    <sodipodi:guide
       position="81.559849,207.39926"
       orientation="0,-1"
       id="guide955" />
    <sodipodi:guide
       position="100.55324,48.748595"
       orientation="0,-1"
       id="guide957" />
    <sodipodi:guide
       position="112.7071,164.60675"
       orientation="1,0"
       id="guide1062" />
  </sodipodi:namedview>
  <metadata
     id="metadata5">
    <rdf:RDF>
      <cc:Work
         rdf:about="">
        <dc:format>image/svg+xml</dc:format>
        <dc:type
           rdf:resource="http://purl.org/dc/dcmitype/StillImage" />
        <dc:title />
      </cc:Work>
    </rdf:RDF>
  </metadata>
  <g
     inkscape:label="Layer 1"
     inkscape:groupmode="layer"
     id="layer1">
    <path
       id="path839"
       style="fill:#d40000;fill-opacity:1;stroke:#330808;stroke-width:5.09949;stroke-miterlimit:4;stroke-dasharray:none;stroke-opacity:1"
       d="M 128,2.5497523 C 58.715672,2.5498474 2.5498487,58.71567 2.5497494,128 2.5498487,197.28432 58.715672,253.45016 128,253.45026 197.28431,253.45014 253.45013,197.28432 253.45026,128 253.45017,58.756727 197.34864,2.6079061 128.1054,2.5497523 Z M 84.508118,51.722139 h 34.547912 c 2.88928,0 7.57422,-0.0091 10.46239,0.068 15.54043,0.415176 27.61284,2.725792 36.21706,6.931716 2.59375,1.267881 6.52122,3.87865 8.62141,5.858122 5.77904,5.44683 9.10656,12.872825 9.98175,22.277728 0.26763,2.875963 0.27707,7.577845 -0.0738,10.443956 -0.40577,3.314609 -1.21269,6.377119 -2.42125,9.187999 -1.13976,2.65082 -3.75932,6.5896 -5.7817,8.64726 -2.02072,2.05594 -4.37907,3.82608 -7.07456,5.31 -2.52912,1.39231 -2.47649,2.80308 0.17605,3.94387 4.42868,1.90471 8.22159,4.50169 11.37841,7.79186 1.9985,2.08291 4.69969,5.94898 5.99198,8.53024 2.16952,4.33355 3.51257,9.20145 4.02928,14.60446 0.27494,2.87516 0.27339,7.57199 0.0199,10.44922 -0.89103,10.11833 -4.45625,18.22208 -10.69536,24.31107 -2.06608,2.01639 -5.8895,4.76783 -8.42273,6.15326 -7.25762,3.96926 -16.62153,6.46951 -28.09263,7.50041 -7.07552,0.63588 -18.6128,0.54233 -25.71934,0.54233 H 84.926065 A 19.697243,19.697243 0 0 1 65.228757,184.57633 V 71.000972 A 19.279167,19.279167 0 0 1 84.508118,51.722139 Z m 39.041492,26.766584 c -0.89184,-3.78e-4 -1.72738,0.0036 -2.4497,0.0036 h -8.91131 a 7.6210121,7.6210121 0 0 0 -7.62109,7.621092 v 16.814935 a 7.8526667,7.8526667 0 0 0 7.85247,7.85247 h 8.67993 c 2.88928,0 7.59241,0.0705 10.44448,-0.37368 1.59497,-0.24834 3.05385,-0.62046 4.37658,-1.11628 2.69182,-1.009 6.43288,-4.12532 7.69173,-6.70298 0.4187,-0.85735 0.75647,-1.78063 1.01298,-2.7691 0.72384,-2.789317 0.7254,-7.576861 -0.0153,-10.361216 -0.25325,-0.95199 -0.58335,-1.843685 -0.99085,-2.674235 -1.26374,-2.575636 -4.98607,-5.715507 -7.66748,-6.751466 -1.33127,-0.514332 -2.80084,-0.899783 -4.40874,-1.156338 -2.13764,-0.341079 -5.31819,-0.385718 -7.99372,-0.386854 z m 1.32711,59.060307 c -0.89117,-5.8e-4 -1.72633,0.003 -2.44866,0.003 h -10.00808 a 7.852647,7.852647 0 0 0 -7.85247,7.85247 v 24.24624 a 7.852647,7.852647 0 0 0 7.85247,7.85246 h 10.00808 c 2.8893,0 7.58303,0.0473 10.45292,-0.27405 3.08961,-0.34579 5.79207,-1.01836 8.10702,-2.01859 2.64266,-1.14182 6.36373,-4.20015 7.83139,-6.6724 1.02864,-1.73274 1.75753,-3.71966 2.18672,-5.96038 0.54275,-2.83361 0.54575,-7.57518 -0.0122,-10.40547 -0.4172,-2.11659 -1.11033,-3.99994 -2.07919,-5.65047 -1.45524,-2.47909 -5.18273,-5.53453 -7.82665,-6.67346 -2.33703,-1.00675 -5.07256,-1.68224 -8.20664,-2.02703 -2.15282,-0.23683 -5.33124,-0.2702 -8.00478,-0.27195 z" />
    <g
       transform="matrix(19.267595,0,0,19.267595,-1832.6203,-771.78639)"
       id="pathText"
       style="font-style:normal;font-weight:normal;font-size:10.5833px;line-height:1.25;font-family:sans-serif;white-space:pre;shape-inside:url(#rect921);fill:#000000;fill-opacity:1;stroke:none" />
    <g
       aria-label="Y"
       transform="matrix(19.811936,0,0,19.811936,-1933.4604,-1329.2656)"
       id="text959"
       style="font-style:normal;font-weight:normal;font-size:10.5833px;line-height:1.25;font-family:sans-serif;white-space:pre;shape-inside:url(#rect961);fill:#000000;fill-opacity:1;stroke:none" />
    <g
       aria-label="A"
       transform="matrix(19.551223,0,0,19.551223,-606.5645,-2200.2806)"
       id="text989"
       style="font-style:normal;font-weight:normal;font-size:10.5833px;line-height:1.25;font-family:sans-serif;white-space:pre;shape-inside:url(#rect991);fill:#000000;fill-opacity:1;stroke:none" />
    <g
       aria-label="B"
       transform="matrix(19.386958,0,0,19.386958,-796.28197,-1962.7692)"
       id="text1022"
       style="font-style:normal;font-weight:normal;font-size:10.5833px;line-height:1.25;font-family:sans-serif;white-space:pre;shape-inside:url(#rect1024);fill:#000000;fill-opacity:1;stroke:none" />
  </g>
</svg>
